<?xml version="1.0" encoding="utf-8"?>
<!-- Generator: Adobe Illustrator 24.1.0, SVG Export Plug-In . SVG Version: 6.00 Build 0)  -->
<svg version="1.1" id="图层_1" xmlns="http://www.w3.org/2000/svg" xmlns:xlink="http://www.w3.org/1999/xlink" x="0px" y="0px"
	 viewBox="0 0 283.4 64" style="enable-background:new 0 0 283.4 64;" xml:space="preserve">
<style type="text/css">
	.st0{fill:#0168FF;}
	.st1{fill:#FF2448;}
	.st2{fill:#43FFBB;}
	.st3{fill:#FF488A;}
	.st4{fill:#3A3C41;}
</style>
<path class="st0" d="M26.6,10.4c2.8,0.4,5.4,1.2,7.8,2.7c4,2.3,7.2,6.1,9,10.4c1.3,3.3,1.8,6.9,1.3,10.6c-0.4,2.7-1.2,5.4-2.7,7.7
	c3-1.7,5.7-4.3,7.4-7.3c1.3-2.2,2.2-4.6,2.4-7.2c0.4-3.3,0-6.7-1.2-9.9c-2.4-6.2-7.9-10.6-14.4-11.9c-0.9-0.1-1.7-0.2-2.4-0.4
	C24.9,4.4,16,8.1,10.4,15c1.7-1.3,3.7-2.6,5.6-3.3C19.5,10.4,23.1,9.9,26.6,10.4z"/>
<path class="st1" d="M9.8,37.3c0.4-2.8,1.2-5.4,2.7-7.8c2.3-4,6-7.2,10.2-9c3.4-1.3,7.1-1.8,10.7-1.3c2.7,0.4,5.2,1.2,7.6,2.6
	c-1.7-3-4.3-5.6-7.2-7.4c-2.2-1.3-4.6-2.2-7.2-2.4c-3.3-0.4-6.6,0-9.7,1.2c-5.4,2.2-9.5,6.5-11.3,11.9c-0.4,1.2-0.6,2.6-0.7,3.8
	c-0.1,1.2-0.2,2.6-0.2,3.9c0.1,8,3.8,15.6,10,20.7c-1.3-1.7-2.4-3.5-3.3-5.5C9.8,44.5,9.3,40.8,9.8,37.3z"/>
<path class="st2" d="M58.8,34.9c0.9-9.1-2.9-18-10-23.7c1.5,1.7,2.6,3.5,3.4,5.6c1.3,3.3,1.8,7.1,1.3,10.6c-0.4,2.8-1.2,5.4-2.7,7.8
	c-2.3,4.1-6.1,7.3-10.6,9c-3.3,1.3-6.9,1.7-10.4,1.2c-2.7-0.4-5.4-1.2-7.7-2.6c1.7,3,4.3,5.6,7.2,7.3c2.2,1.3,4.6,2.2,7.2,2.4
	c3.4,0.4,6.8,0,10-1.3c6.2-2.6,10.7-8,11.8-14.5c0.1-0.4,0.1-0.7,0.1-1C58.7,35.5,58.7,35.2,58.8,34.9L58.8,34.9z"/>
<path class="st3" d="M36.5,54.1c-2.8-0.4-5.4-1.2-7.8-2.7c-4-2.3-7.2-6.1-9-10.4c-1.3-3.3-1.8-6.9-1.3-10.6c0.4-2.7,1.2-5.1,2.4-7.6
	c-2.9,1.7-5.5,4.3-7.2,7.2c-1.3,2.2-2.2,4.6-2.4,7.2c-0.4,3.3,0,6.7,1.2,9.7c2.2,5.5,6.6,9.6,12.2,11.3c2.3,0.6,4.6,1,7.1,1
	c8.4,0,16.2-3.9,21.3-10.4c-1.7,1.5-3.7,2.7-5.8,3.5C43.9,54.1,40.1,54.6,36.5,54.1z"/>
<g>
	<path class="st4" d="M96.5,36.2c-0.5-0.7-1.2-1.4-2-2s-1.8-1.1-2.8-1.4c-0.5-0.1-1.2-0.3-2.2-0.6c-1-0.3-2-0.5-3.1-0.8
		s-2-0.5-2.8-0.8c-0.8-0.2-1.4-0.3-1.5-0.4c-1.2-0.3-2.2-0.8-2.9-1.5c-0.7-0.7-1.1-1.6-1.1-2.8c0-0.8,0.2-1.5,0.6-2.1s0.9-1,1.5-1.3
		s1.2-0.6,1.9-0.7c0.7-0.1,1.4-0.2,2.1-0.2c2,0,3.7,0.5,5,1.3s2,2.4,2.2,4.5h5.8c0-1.7-0.3-3.2-1-4.5s-1.6-2.4-2.8-3.3
		c-1.1-0.9-2.5-1.6-4-2c-1.5-0.5-3.2-0.7-4.9-0.7c-1.5,0-2.9,0.2-4.4,0.6s-2.8,1-3.9,1.8s-2,1.8-2.8,3.1c-0.7,1.2-1,2.7-1,4.3
		c0,0.8,0.1,1.7,0.3,2.5c0.2,0.8,0.6,1.6,1.2,2.4c0.6,0.7,1.3,1.4,2.3,2s2.2,1.1,3.6,1.5c2.3,0.6,4.2,1.1,5.8,1.5s2.9,0.8,4.1,1.2
		c0.7,0.2,1.3,0.7,1.9,1.3c0.6,0.6,0.8,1.5,0.8,2.8c0,0.6-0.1,1.2-0.4,1.8c-0.2,0.6-0.7,1.1-1.2,1.6c-0.6,0.5-1.3,0.8-2.2,1.1
		c-0.9,0.3-2,0.5-3.2,0.5s-2.3-0.1-3.3-0.4s-1.9-0.7-2.7-1.2c-0.8-0.6-1.4-1.3-1.8-2.2c-0.5-0.9-0.6-2-0.6-3.2h-5.8
		c0.1,2,0.4,3.8,1.1,5.3s1.8,2.7,2.9,3.7c1.2,1,2.7,1.6,4.4,2.2c1.6,0.5,3.5,0.7,5.3,0.7c1.6,0,3.2-0.2,4.8-0.6c1.6-0.4,3-1,4.2-1.8
		c1.2-0.8,2.2-1.9,3-3.2c0.7-1.3,1.1-2.9,1.1-4.8c0-0.8-0.1-1.8-0.4-2.6C97.5,37.8,97.1,36.9,96.5,36.2z"/>
	<path class="st4" d="M160.6,33.1L160.6,33.1l-0.1-0.3l0.1-0.1c1.5-0.7,2.7-1.6,3.6-2.8c0.8-1.2,1.2-2.7,1.2-4.4
		c0-2.8-0.9-4.9-2.7-6.3s-4.3-2.1-7.3-2.1h-16.5V51h15.6c2.2,0,4.1-0.2,5.7-0.7c1.6-0.5,2.9-1.1,3.9-2c1-0.8,1.8-1.8,2.2-3
		c0.5-1.1,0.7-2.4,0.7-3.7c0-2.3-0.6-4.2-1.6-5.8C164.2,34.6,162.6,33.5,160.6,33.1z M144.6,21.9h9.9c1.6,0,2.9,0.3,3.8,1.1
		c0.9,0.7,1.4,2,1.4,3.7c0,1.6-0.5,2.8-1.5,3.6c-1,0.8-2.2,1.2-3.7,1.2h-9.9V21.9z M159.6,45.1c-1,1-2.5,1.5-4.3,1.5h-10.7V35.7
		h10.7c1.9,0,3.3,0.5,4.3,1.4s1.5,2.3,1.5,4C161.2,42.8,160.7,44.2,159.6,45.1z"/>
	<polygon class="st4" points="190,44 180.6,17.2 172.4,17.2 172.4,51.2 177.8,51.2 177.8,24.8 178.1,24.8 178.2,24.9 187.6,51.2 
		192.4,51.2 201.9,24.8 202.2,24.8 202.2,51.2 207.6,51.2 207.6,17.2 199.5,17.2 190.3,44.1 190,44.1 	"/>
	<path class="st4" d="M224.1,17.2l-13,33.9h5.9l3.2-9.1H234v0.1l3.2,9h6.2l-13-33.9C230.3,17.2,224.1,17.2,224.1,17.2z M221.8,37.9
		l5.3-14.9h0.3v0.1l5.2,14.9L221.8,37.9L221.8,37.9z"/>
	<rect x="246.9" y="17.2" class="st4" width="5.8" height="33.9"/>
	<path class="st4" d="M119.7,46.2c-0.6,0.1-1.3,0.1-2,0.1c-1.9,0-3.5-0.3-4.5-0.9c-1.1-0.6-1.9-1.4-2.4-2.3c-0.5-1-0.8-2-1-3.2
		c-0.2-1.2-0.2-2.3-0.2-3.5V17.3h-5.7v21.2c0,2.2,0.3,4.1,1,5.7c0.7,1.6,1.6,2.9,2.8,4c0.2,0.2,0.4,0.3,0.6,0.5
		c0.1,0.1,0.2,0.2,0.3,0.2C112.5,49.5,116.6,48.5,119.7,46.2z"/>
	<path class="st4" d="M112.6,50.5c1.5,0.5,3.3,0.6,5.1,0.6c2,0,4-0.3,5.7-0.8c1.7-0.5,3.2-1.4,4.4-2.4c1.2-1.1,2.2-2.4,2.8-4
		c0.7-1.6,1-3.5,1-5.7V17.1h-5.7v19.2c0,1.1-0.1,2.3-0.2,3.5c-0.1,1.1-0.4,2.2-0.9,3.1l0,0c0,0,0,0,0,0.1c0,0,0,0.1-0.1,0.1l0,0
		c0,0.1-0.1,0.1-0.1,0.1s0,0-0.1,0.1C121.9,47.5,117.5,50.1,112.6,50.5z"/>
	<polygon class="st4" points="265.9,46.2 265.9,17.2 260.2,17.2 260.2,51.2 283.4,51.2 283.4,46.3 266.1,46.3 	"/>
</g>
</svg>
