<svg xmlns="http://www.w3.org/2000/svg" viewBox="0 0 200.02 70.01"><defs><style>.cls-1{fill:#111;}.cls-2{fill:#00a7ef;}</style></defs><title>支付宝2</title><g id="图层_2" data-name="图层 2"><g id="图层_1-2" data-name="图层 1"><path class="cls-1" d="M194.06,49.12,190.89,56l-3.31-6.85h-3l4.87,9.47v6.57h2.79V58.51l4.87-9.42Zm-23.19,4.12,2.2,6.63h-4.43Zm2.78,8.66,1.09,3.23h3l-5.77-16h-2.31l-5.9,16h3l1.15-3.23Zm-22.28-5.09h-3.14V51.24h3.14A2.78,2.78,0,0,1,153.94,54a2.54,2.54,0,0,1-2.27,2.78Zm.17-7.72h-6.21v16h2.79V59h3.34a4.93,4.93,0,0,0,0-9.86h0Zm-20.86,16h2.79v-16h-2.79Zm-20.32-16v16h9.74V62.88h-6.82V49ZM93.87,53.24l2.2,6.63H91.56Zm2.79,8.66,1.08,3.23h3l-5.9-16H92.53l-5.9,16h3l1.14-3.23Zm20.41-44.08H104.76v-4.4h14.4V10.64h-14.4V5.07H98.47a1.23,1.23,0,0,0-1.26,1.19v4.43H82.84v2.79H97.13v4.43H85v2.78h24a23.59,23.59,0,0,1-7.83,10.69,30.4,30.4,0,0,1-7.88-8H86.8a36.06,36.06,0,0,0,10.3,11,56.85,56.85,0,0,1-14.56,6.52v3.28A64.8,64.8,0,0,0,101.25,37a66.93,66.93,0,0,0,18.35,7.13v-3.1a76.5,76.5,0,0,1-14.23-6.73,31,31,0,0,0,11.81-16.52ZM157.36,5.51H151v6.74H135.08V15H151V39.21a1.14,1.14,0,0,1-1,1H146.7V43h8.35a2.58,2.58,0,0,0,2.42-2.5V15h2.62V12.22h-2.78ZM143.77,19.44a1.37,1.37,0,0,0-1.31-.78h-5.29l4.21,13.14h6.35ZM200,42.55l-2.25-7.66a1.19,1.19,0,0,0-1.14-.86h-6l1.76,5.9h-7.08V28.54h13.93V25.76H185.29V20.5h13.93V17.71H164.49V20.5h13.92v5.31H164.49V28.6h13.92V40H164.49v2.78H200ZM128,5.26l-7.44,17.46h5.57V43.39h6.24V15.9h-2.26l4.71-10.66Zm43.8,6.07H192v4h7.24V10.53a1.91,1.91,0,0,0-1.87-1.93H185.68V4.85h-7.54V8.58H164.6v6.68h7.24V11.31Z"/><path class="cls-2" d="M58.26,44a74.62,74.62,0,0,0,12.36,3.56V11.14A11.28,11.28,0,0,0,59.29,0h-48A11.3,11.3,0,0,0,0,11.14V58.87A11.29,11.29,0,0,0,11.33,70H59.48A11.31,11.31,0,0,0,70.81,58.87v-.45s-18.35-7.6-27.65-12.06C36.92,54,28.88,58.62,20.55,58.62,6.43,58.62,1.67,46.36,8.38,38.29a13.88,13.88,0,0,1,7.77-4.37c6-1.48,15.6.92,24.53,3.84a48.59,48.59,0,0,0,4-9.69H16.93V25.28H31.16v-5H13.9V17.54H31.19V10.41a1.19,1.19,0,0,1,1.19-1.19h7v8.35H56.45v2.79H39.38v5H53.3a54.86,54.86,0,0,1-5.9,14.79C51.63,41.63,55.41,43.05,58.26,44Zm-41-6a13.93,13.93,0,0,0-6.91,2.56c-5.57,4.7-2.2,13.31,8.77,13.31,6.41,0,12.76-4.09,17.8-10.53C29.8,39.88,23.75,37.43,17.24,38.07Z"/></g></g></svg>