<svg xmlns="http://www.w3.org/2000/svg" viewBox="0 0 197.36 62.97"><defs><style>.cls-1{fill:#393738;}.cls-2{fill:#00ac1c;}</style></defs><title>微信支付1</title><g id="图层_2" data-name="图层 2"><g id="图层_1-2" data-name="图层 1"><path class="cls-1" d="M81.54,24.29a35.47,35.47,0,0,0,5.5-8.9l1.89.9a45,45,0,0,1-2.21,4.17v15H84.79v-12a28.77,28.77,0,0,1-2.5,3.11C82.07,25.82,81.82,25,81.54,24.29Zm.14-9.22a27.29,27.29,0,0,0,5.39-7.46l1.79,1a34.42,34.42,0,0,1-6.5,8.68C82.18,16.57,81.93,15.82,81.68,15.07ZM96.07,26.21H92.29v1.33c0,3.42-1,5.85-2.9,7.32A16.93,16.93,0,0,0,88.11,33c1.5-1,2.25-2.9,2.25-5.72v-3H98v5c.89-.75,1.89-1.64,3-2.68.17.82.32,1.57.5,2.22-1,.82-2.25,1.85-3.58,3.07-.42.39-.78.78-1.14,1.14l-1.46-1.82a2.86,2.86,0,0,0,.78-2.07Zm-6.6-9.14v-7h1.82v5.07h2.35V7.86h1.9v7.25h2.35V10h1.83v8H97.89v-.93ZM90,19.61h9.1v2H90ZM103,7.46l1.93.36c-.33,1.75-.68,3.43-1.08,5h6.18v2.07h-1.35q-.6,8.19-2.75,13a17.78,17.78,0,0,0,4.32,5.47c-.43.75-.82,1.46-1.22,2.21A22.82,22.82,0,0,1,104.89,30a28.17,28.17,0,0,1-4.42,5.75c-.4-.54-.86-1.15-1.4-1.79a24.22,24.22,0,0,0,4.82-6.14A28.47,28.47,0,0,1,102,19c-.33.75-.65,1.43-1,2.15a12.3,12.3,0,0,0-1.36-1.5A41.48,41.48,0,0,0,103,7.46Zm3.71,7.43h-3.43l-.07.29a30.85,30.85,0,0,0,1.64,10.25A46.91,46.91,0,0,0,106.75,14.89Zm4.07,6.29a47.92,47.92,0,0,0,6.33-13.79l2.21.65a71.32,71.32,0,0,1-2.71,7.1v20.5h-2.08V19.32a37.13,37.13,0,0,1-2.78,4.22Zm8.29-9.89h9.32c-.57-1-1.18-2-1.78-2.93l1.92-1c.68,1,1.36,2.1,2,3.25l-1.25.64h9.89v2H119.11v-2Zm1.57,4.64h16.86v1.93H120.68Zm0,4.61h16.86v1.92H120.68Zm.32,4.64h16.29V35.64h-2.22V33.93H123.22v1.71H121Zm14.07,1.93H123.22V32h11.85Zm5.43-15.68h13V7.32h2.36v4.11h12.39V13.5H155.86v4.25h8.07v2a25.55,25.55,0,0,1-7.28,9.5,36.41,36.41,0,0,0,12,3.61c-.68,1-1.22,1.78-1.65,2.5-5.43-1.07-9.6-2.61-12.53-4.57a47,47,0,0,1-12.79,5,10.24,10.24,0,0,0-1.25-2.25,47.64,47.64,0,0,0,12.14-4.18,23.39,23.39,0,0,1-6.42-9.47h-2.83V17.82H153.5V13.54h-13Zm20.61,8.43H148.54a18.41,18.41,0,0,0,6,8.1A20.25,20.25,0,0,0,161.11,19.86ZM169.47,21A49,49,0,0,0,176,7.39l2.36.9c-.79,2.14-1.61,4.1-2.43,5.92V35.46h-2.28V18.75a47.16,47.16,0,0,1-3.25,5A25.07,25.07,0,0,0,169.47,21Zm8.32-7.15H190.9V7.64h2.32v6.25h4.14v2.18h-4.14V30.54c0,3-1.36,4.46-4,4.53-.89,0-2.32,0-4.28,0-.11-.75-.25-1.61-.47-2.58,1.82.15,3.25.22,4.25.22a2.1,2.1,0,0,0,1.79-.57,3.64,3.64,0,0,0,.46-2.25V16.07H177.79Zm1.86,6.72,1.93-1.22c1.17,1.68,2.53,3.9,4.1,6.61l-2.07,1.29a60,60,0,0,0-4-6.68ZM104.5,43.39l-3.93,14h-2.1L95.64,47.32a4.91,4.91,0,0,1-.21-1.46h0a5.72,5.72,0,0,1-.25,1.43L92.29,57.43H90.18l-4.07-14h2L91,54a5.1,5.1,0,0,1,.21,1.43h.07A10.61,10.61,0,0,1,91.54,54l3-10.61h1.79l2.89,10.68a8.16,8.16,0,0,1,.25,1.36h0A7.09,7.09,0,0,1,99.79,54l2.75-10.65Zm9.5,9.5h-7a3.48,3.48,0,0,0,.89,2.47,3.12,3.12,0,0,0,2.32.89,5.16,5.16,0,0,0,3.11-1.07v1.57a6,6,0,0,1-3.5.93,4.28,4.28,0,0,1-3.4-1.39,5.53,5.53,0,0,1-1.21-3.82,5.46,5.46,0,0,1,1.32-3.79,4.28,4.28,0,0,1,3.32-1.5,3.94,3.94,0,0,1,3.08,1.25A5.13,5.13,0,0,1,114,52Zm-1.78-1.42a3.15,3.15,0,0,0-.65-2.11,2.22,2.22,0,0,0-1.78-.75,2.39,2.39,0,0,0-1.82.78,3.68,3.68,0,0,0-1,2.08Zm14,5.39a8.47,8.47,0,0,1-3.9.82,6.31,6.31,0,0,1-4.82-1.93,7.06,7.06,0,0,1-1.82-5.07,7.47,7.47,0,0,1,2-5.46,6.83,6.83,0,0,1,5.14-2.08,7.91,7.91,0,0,1,3.32.58v1.89a6.57,6.57,0,0,0-3.32-.82A5,5,0,0,0,119,46.36a5.94,5.94,0,0,0-1.47,4.21,5.62,5.62,0,0,0,1.4,4,4.65,4.65,0,0,0,3.6,1.5,7.07,7.07,0,0,0,3.65-.93Zm11,.61h-1.78V51.72c0-2-.75-3-2.25-3a2.48,2.48,0,0,0-1.93.89,3.14,3.14,0,0,0-.75,2.22v5.68h-1.79V42.61h1.79v6.46h0a3.64,3.64,0,0,1,3.29-1.89c2.25,0,3.39,1.36,3.39,4.11Zm3.22-9.36a6.49,6.49,0,0,1,3.46-.93c2.43,0,3.64,1.29,3.64,3.82v6.47h-1.75V55.93h0a3.36,3.36,0,0,1-3.07,1.79,3.24,3.24,0,0,1-2.32-.79,2.77,2.77,0,0,1-.86-2.14c0-1.86,1.11-3,3.32-3.29l3-.43c0-1.64-.67-2.46-2-2.46a5,5,0,0,0-3.29,1.21V48.11Zm3,4.61a3.24,3.24,0,0,0-1.71.6,1.81,1.81,0,0,0,0,2.47,1.86,1.86,0,0,0,1.36.46,2.51,2.51,0,0,0,1.93-.82,2.87,2.87,0,0,0,.75-2v-1l-2.36.29Zm11.86,4.64a3.25,3.25,0,0,1-1.57.32c-1.79,0-2.68-1-2.68-3V48.89h-1.72V47.43H151V45l1.78-.57v3h2.5v1.47h-2.5v5.46a2.41,2.41,0,0,0,.33,1.43,1.3,1.3,0,0,0,1.1.43,1.74,1.74,0,0,0,1-.32Zm9.64-5.14v5.25h-1.78v-14h4a5.17,5.17,0,0,1,3.53,1.11,3.9,3.9,0,0,1,1.25,3.14A4.3,4.3,0,0,1,170.47,51a5.19,5.19,0,0,1-3.68,1.21h-1.86Zm0-7.22v5.61h1.68a3.79,3.79,0,0,0,2.54-.75,2.7,2.7,0,0,0,.85-2.14c0-1.83-1.07-2.72-3.21-2.72Zm8.93,3.11a6.49,6.49,0,0,1,3.46-.93c2.43,0,3.65,1.29,3.65,3.82v6.47h-1.75V55.93h0a3.35,3.35,0,0,1-3.07,1.79,3.25,3.25,0,0,1-2.32-.79,2.81,2.81,0,0,1-.86-2.14c0-1.86,1.11-3,3.32-3.29l3-.43q0-2.46-2-2.46a5,5,0,0,0-3.28,1.21V48.11Zm3,4.61a3.24,3.24,0,0,0-1.71.6,1.64,1.64,0,0,0-.46,1.29,1.59,1.59,0,0,0,.5,1.18,1.83,1.83,0,0,0,1.35.46,2.51,2.51,0,0,0,1.93-.82,2.87,2.87,0,0,0,.75-2v-1ZM192,47.43,187.5,59c-.85,2.14-2,3.21-3.57,3.21a3.91,3.91,0,0,1-1.14-.14V60.47a2.72,2.72,0,0,0,1,.21c.82,0,1.39-.46,1.82-1.43l.79-1.82-3.93-10h2L187,55l.21.82h0c0-.18.11-.47.21-.82l2.75-7.58H192Z"/><path class="cls-2" d="M26,39.89a2.14,2.14,0,0,1-1.07.25,2.38,2.38,0,0,1-2.07-1.21l-.15-.36-6.5-14.25a1.15,1.15,0,0,1-.1-.5,1.19,1.19,0,0,1,1.18-1.18,1.07,1.07,0,0,1,.71.25l7.64,5.43a3.61,3.61,0,0,0,2,.57,3.38,3.38,0,0,0,1.21-.21L64.89,12.61C58.43,5,47.79,0,35.72,0,16,0,0,13.32,0,29.75c0,9,4.82,17,12.36,22.5a2.39,2.39,0,0,1,1,1.93,2.5,2.5,0,0,1-.15.75c-.6,2.25-1.57,5.82-1.6,6a3.77,3.77,0,0,0-.18.86A1.19,1.19,0,0,0,12.61,63a1.52,1.52,0,0,0,.68-.22l7.85-4.43a3.61,3.61,0,0,1,1.9-.53,4.92,4.92,0,0,1,1,.14,42.47,42.47,0,0,0,11.65,1.64c19.71,0,35.71-13.32,35.71-29.75A25.57,25.57,0,0,0,67.36,16L26.25,39.75Z"/></g></g></svg>