<?xml version="1.0" encoding="UTF-8"?>
<svg id="_图层_2" data-name="图层 2" xmlns="http://www.w3.org/2000/svg" xmlns:xlink="http://www.w3.org/1999/xlink" viewBox="0 0 130.07 130.07">
  <defs>
    <style>
      .cls-1 {
        fill: url(#_未命名的渐变_27);
      }

      .cls-1, .cls-2 {
        stroke-width: 0px;
      }

      .cls-2 {
        fill: #fff;
      }
    </style>
    <linearGradient id="_未命名的渐变_27" data-name="未命名的渐变 27" x1="65.04" y1="130.07" x2="65.04" y2="0" gradientUnits="userSpaceOnUse">
      <stop offset="0" stop-color="#00c177"/>
      <stop offset="1" stop-color="#1ad6a4"/>
    </linearGradient>
  </defs>
  <g id="_图层_1-2" data-name="图层 1">
    <g>
      <path class="cls-1" d="M0,65.04c0,35.92,29.12,65.04,65.04,65.04s65.04-29.12,65.04-65.04S100.95,0,65.04,0,0,29.12,0,65.04Z"/>
      <g>
        <path class="cls-2" d="M101.69,55.23c-.36-1.16-.78-2.3-1.26-3.42-8.28-19.56-30.85-28.7-50.4-20.42-9.2,3.9-16.52,11.22-20.42,20.42-.48,1.13-.9,2.27-1.26,3.43-4.24.98-7.24,4.75-7.24,9.1v5.91c0,5.16,4.18,9.34,9.34,9.34,2.07,0,3.74-1.68,3.74-3.74v-18.1c0-1.09-.64-2.07-1.63-2.51,6.4-17.93,26.13-27.28,44.06-20.89,9.75,3.48,17.41,11.15,20.89,20.89-.99.44-1.62,1.42-1.62,2.5v18.1c0,2.07,1.68,3.74,3.74,3.74,5.16,0,9.34-4.18,9.34-9.34v-5.91c0-4.36-3.03-8.14-7.28-9.1Z"/>
        <path class="cls-2" d="M65.04,37.37c-16.13,0-29.25,13.42-29.25,29.91,0,9.67,4.5,18.61,12.11,24.23l-4.48,7.5c-.39.66-.32,1.5.17,2.08.34.41.83.63,1.33.63.22,0,.44-.05.66-.13l12.11-5.37c2.41.64,4.89.96,7.36.96,16.13,0,29.25-13.42,29.25-29.91,0-16.49-13.12-29.91-29.25-29.91ZM77.51,76.33c-.12.28-3.06,6.86-11.53,6.86-9.13,0-11.5-6.73-11.6-7.01-.37-1.1.27-2.29,1.44-2.64,1.16-.35,2.4.25,2.78,1.34.16.44,1.68,4.11,7.38,4.11s7.41-4.21,7.43-4.25c.46-1.07,1.76-1.59,2.89-1.15,1.13.44,1.68,1.66,1.21,2.74Z"/>
      </g>
    </g>
  </g>
</svg>